<svg width="20" height="20" viewBox="0 0 20 20" fill="none" xmlns="http://www.w3.org/2000/svg">
<path fill-rule="evenodd" clip-rule="evenodd" d="M3.16323 0H16.8595C17.3829 0 17.8191 0.0873359 18.3425 0.349345C18.9532 0.611353 19.3021 1.04804 19.4766 1.39738C19.4766 1.39738 19.4766 1.48472 19.5638 1.48472C19.8255 1.9214 20 2.44541 20 3.05677C20 3.58079 19.9128 4.1048 19.5638 4.62882L10.9273 19.476C10.7529 19.8253 10.4039 20 9.96773 20C9.61878 20 9.26983 19.8253 9.00812 19.476L0.546116 4.62882C0.371642 4.27948 0.022693 3.84279 0.022693 3.1441C-0.0645442 2.53275 0.10993 2.00873 0.371641 1.48472C0.633353 0.960699 1.06954 0.524017 1.6802 0.349345C2.20362 -3.4508e-07 2.81428 0 3.16323 0ZM8.92088 2.09607H3.16323C2.81428 2.09607 2.63981 2.09607 2.55257 2.18341C2.3781 2.27074 2.29086 2.35808 2.20362 2.53275C2.11638 2.62009 2.11638 2.79476 2.11638 2.96943C2.11638 3.05677 2.20362 3.1441 2.3781 3.49345L8.92088 14.8472V2.09607ZM11.0146 2.09607V14.9345L17.6446 3.49345C17.7318 3.31878 17.7318 3.1441 17.7318 2.96943C17.7318 2.79476 17.7318 2.62009 17.6446 2.53275C17.5574 2.44541 17.5574 2.35808 17.4701 2.35808L17.3829 2.27074C17.2084 2.18341 17.0339 2.18341 16.7722 2.18341H11.0146V2.09607Z" fill="white"/>
</svg>
