<svg width="24" height="24" viewBox="0 0 24 24" fill="none" xmlns="http://www.w3.org/2000/svg">
<path fill-rule="evenodd" clip-rule="evenodd" d="M22.9854 3.73548C22.667 7.24925 21.2881 15.7759 20.5867 19.7115C20.2897 21.3772 19.7049 21.9354 19.1392 21.9901C17.91 22.109 16.9762 21.1368 15.7851 20.3174C13.9215 19.0353 12.8686 18.2376 11.0596 16.9868C8.96855 15.5406 10.3243 14.7464 11.5153 13.4478C11.8272 13.1076 17.245 7.93585 17.35 7.46712C17.3633 7.40809 17.3757 7.18935 17.2516 7.0739C17.1275 6.95846 16.9447 6.99839 16.8132 7.02964C16.6263 7.0739 13.6486 9.13894 7.88168 13.2247C7.03634 13.8341 6.27122 14.1301 5.58469 14.1153C4.82868 14.098 3.37455 13.6666 2.29347 13.2977C0.96755 12.8454 -0.0862372 12.6058 0.00557628 11.8376C0.0527237 11.4375 0.577963 11.0286 1.58047 10.6102C7.75347 7.78742 11.8694 5.92724 13.929 5.02797C19.8099 2.4613 21.0317 2.01505 21.8281 2.00029C22.8259 1.9818 23.0666 2.84601 22.9854 3.73548Z" fill="white"/>
<path d="M22.9854 3.73548C22.667 7.24925 21.2881 15.7759 20.5867 19.7115C20.2897 21.3772 19.7049 21.9354 19.1392 21.9901C17.91 22.109 16.9762 21.1368 15.7851 20.3174C13.9215 19.0353 12.8686 18.2376 11.0596 16.9868C8.96855 15.5406 10.3243 14.7464 11.5153 13.4478C11.8272 13.1076 17.245 7.93585 17.35 7.46712C17.3633 7.40809 17.3757 7.18935 17.2516 7.0739C17.1275 6.95846 16.9447 6.99839 16.8132 7.02964C16.6263 7.0739 13.6486 9.13894 7.88168 13.2247C7.03634 13.8341 6.27122 14.1301 5.58469 14.1153C4.82868 14.098 3.37455 13.6666 2.29347 13.2977C0.96755 12.8454 -0.0862372 12.6058 0.00557628 11.8376C0.0527237 11.4375 0.577963 11.0286 1.58047 10.6102C7.75347 7.78742 11.8694 5.92724 13.929 5.02797C19.8099 2.4613 21.0317 2.01505 21.8281 2.00029C22.8259 1.9818 23.0666 2.84601 22.9854 3.73548Z" fill="white"/>
</svg>
