<svg width="24" height="24" viewBox="0 0 24 24" fill="none" xmlns="http://www.w3.org/2000/svg">
<path d="M19.8096 5.13185C18.3314 4.477 16.7708 4.01243 15.1677 3.75C14.9484 4.12943 14.7499 4.51982 14.5731 4.91952C12.8655 4.67055 11.1291 4.67055 9.42151 4.91952C9.24464 4.51986 9.04616 4.12948 8.82689 3.75C7.22281 4.01464 5.66119 4.48032 4.18143 5.13527C1.24373 9.34075 0.447364 13.4418 0.845547 17.4846C2.56594 18.7145 4.49155 19.6498 6.53867 20.25C6.99962 19.6501 7.4075 19.0138 7.75799 18.3476C7.09229 18.107 6.44977 17.8102 5.83787 17.4606C5.99891 17.3476 6.15641 17.2312 6.30861 17.1182C8.0891 17.9283 10.0324 18.3484 12 18.3484C13.9675 18.3484 15.9108 17.9283 17.6913 17.1182C17.8453 17.2397 18.0028 17.3562 18.1621 17.4606C17.549 17.8108 16.9053 18.1082 16.2384 18.3493C16.5884 19.0152 16.9964 19.651 17.4577 20.25C19.5066 19.6522 21.4337 18.7173 23.1544 17.4863C23.6216 12.7979 22.3562 8.73459 19.8096 5.13185ZM8.26236 14.9983C7.15275 14.9983 6.23605 14.024 6.23605 12.8253C6.23605 11.6267 7.1209 10.6438 8.25882 10.6438C9.39673 10.6438 10.3064 11.6267 10.2869 12.8253C10.2674 14.024 9.39319 14.9983 8.26236 14.9983ZM15.7376 14.9983C14.6262 14.9983 13.713 14.024 13.713 12.8253C13.713 11.6267 14.5979 10.6438 15.7376 10.6438C16.8773 10.6438 17.7798 11.6267 17.7603 12.8253C17.7409 14.024 16.8684 14.9983 15.7376 14.9983Z" fill="white"/>
</svg>
