<svg width="36" height="36" viewBox="0 0 36 36" fill="none" xmlns="http://www.w3.org/2000/svg">
<path fill-rule="evenodd" clip-rule="evenodd" d="M18 36C27.9411 36 36 27.9411 36 18C36 8.05887 27.9411 0 18 0C8.05887 0 0 8.05887 0 18C0 27.9411 8.05887 36 18 36ZM11.1405 11L24.8368 11C25.1857 11 25.7964 11 26.3198 11.3144C26.9305 11.4716 27.3666 11.8646 27.6284 12.3362C27.8901 12.8079 28.0645 13.2795 27.9773 13.8297C27.9773 14.3327 27.754 14.6849 27.5753 14.9666C27.5307 15.037 27.4888 15.1031 27.4539 15.1659L18.9919 28.5284C18.7302 28.8428 18.3812 29 18.0323 29C17.5961 29 17.2471 28.8428 17.0727 28.5284L8.43619 15.1659C8.08724 14.6943 8 14.2227 8 13.7511C8 13.2009 8.17448 12.7293 8.43619 12.3362C8.52342 12.3362 8.52342 12.2576 8.52342 12.2576C8.6979 11.9432 9.04685 11.5502 9.65751 11.3144C10.1809 11.0786 10.6171 11 11.1405 11ZM24.8368 12.8865H19.0791L19.0791 24.3624L25.6219 14.1441C25.6956 14.0112 25.7538 13.9205 25.7964 13.854C25.8545 13.7633 25.8836 13.7179 25.8836 13.6725C25.8836 13.5153 25.8836 13.3581 25.7964 13.2795C25.7091 13.1223 25.6219 13.0437 25.4474 12.9651C25.3602 12.8865 25.1857 12.8865 24.8368 12.8865ZM16.9854 24.441L16.9854 12.9651L11.2278 12.9651C10.9661 12.9651 10.7916 12.9651 10.6171 13.0437L10.5299 13.1223C10.476 13.1223 10.4554 13.1523 10.4269 13.1938C10.4093 13.2194 10.3887 13.2495 10.3554 13.2795C10.2682 13.3581 10.2682 13.5153 10.2682 13.6725C10.2682 13.8297 10.2682 13.9869 10.3554 14.1441L16.9854 24.441Z" fill="white"/>
</svg>
