<svg width="24" height="24" viewBox="0 0 24 24" fill="none" xmlns="http://www.w3.org/2000/svg">
<path d="M23.25 5.13281C22.406 5.49953 21.513 5.74114 20.5992 5.84999C21.5595 5.28767 22.2817 4.39432 22.6303 3.33749C21.7224 3.86839 20.7307 4.2409 19.6978 4.43906C19.2629 3.98321 18.7397 3.62057 18.1603 3.37319C17.5808 3.1258 16.9571 2.99883 16.327 2.99999C13.7761 2.99999 11.7117 5.03437 11.7117 7.54218C11.7099 7.89101 11.7499 8.2388 11.8308 8.57812C10.0016 8.49236 8.2104 8.02573 6.57187 7.20808C4.93333 6.39043 3.48351 5.23975 2.31516 3.82968C1.90527 4.52067 1.6885 5.30908 1.6875 6.11249C1.6875 7.68749 2.50922 9.07968 3.75 9.89531C3.01487 9.87786 2.29481 9.68329 1.65094 9.32812V9.38437C1.65094 11.5875 3.24469 13.4203 5.35406 13.8375C4.9574 13.9432 4.54864 13.9968 4.13812 13.9969C3.84683 13.9974 3.5562 13.9691 3.27047 13.9125C3.85687 15.7172 5.56359 17.0297 7.58531 17.0672C5.94252 18.3332 3.9256 19.0175 1.85156 19.0125C1.48341 19.0119 1.11561 18.99 0.75 18.9469C2.85993 20.2942 5.31255 21.0068 7.81594 21C16.3172 21 20.9616 14.0766 20.9616 8.07187C20.9616 7.87499 20.9564 7.67812 20.947 7.48593C21.8485 6.84471 22.6283 6.04786 23.25 5.13281Z" fill="white"/>
</svg>
