<svg width="30" height="30" viewBox="0 0 30 30" fill="none" xmlns="http://www.w3.org/2000/svg">
<path d="M5.5957 6.09378H24.3457C24.5647 6.09367 24.7835 6.10757 25.0008 6.13538C24.9271 5.61845 24.7496 5.12178 24.4788 4.67533C24.208 4.22888 23.8496 3.84189 23.4253 3.53768C23.0009 3.23348 22.5193 3.01837 22.0095 2.90532C21.4998 2.79227 20.9724 2.78363 20.4592 2.87991L5.03906 5.51253H5.02148C4.05356 5.69762 3.19281 6.24526 2.61504 7.04358C3.48551 6.42443 4.5275 6.0924 5.5957 6.09378ZM24.3457 7.50002H5.5957C4.60147 7.50111 3.64828 7.89655 2.94525 8.59957C2.24223 9.3026 1.84679 10.2558 1.8457 11.25V22.5C1.84679 23.4943 2.24223 24.4475 2.94525 25.1505C3.64828 25.8535 4.60147 26.2489 5.5957 26.25H24.3457C25.3399 26.2489 26.2931 25.8535 26.9962 25.1505C27.6992 24.4475 28.0946 23.4943 28.0957 22.5V11.25C28.0946 10.2558 27.6992 9.3026 26.9962 8.59957C26.2931 7.89655 25.3399 7.50111 24.3457 7.50002ZM21.5625 18.75C21.1917 18.75 20.8291 18.6401 20.5208 18.434C20.2125 18.228 19.9721 17.9352 19.8302 17.5926C19.6883 17.2499 19.6512 16.8729 19.7235 16.5092C19.7959 16.1455 19.9745 15.8114 20.2367 15.5492C20.4989 15.287 20.833 15.1084 21.1967 15.0361C21.5604 14.9637 21.9374 15.0008 22.28 15.1428C22.6226 15.2847 22.9155 15.525 23.1215 15.8333C23.3275 16.1417 23.4375 16.5042 23.4375 16.875C23.4375 17.3723 23.24 17.8492 22.8883 18.2008C22.5367 18.5525 22.0598 18.75 21.5625 18.75Z" fill="black"/>
<path d="M1.875 15.2051V9.375C1.875 8.10527 2.57812 5.97656 5.01855 5.51543C7.08984 5.12695 9.14062 5.12695 9.14062 5.12695C9.14062 5.12695 10.4883 6.06445 9.375 6.06445C8.26172 6.06445 8.29102 7.5 9.375 7.5C10.459 7.5 9.375 8.87695 9.375 8.87695L5.00977 13.8281L1.875 15.2051Z" fill="black"/>
</svg>
