<svg width="32" height="32" viewBox="0 0 32 32" fill="none" xmlns="http://www.w3.org/2000/svg">
<path d="M30.6361 11.3375L27.878 8.57937C27.6555 8.35985 27.3588 8.23166 27.0464 8.22009C26.734 8.20852 26.4287 8.31441 26.1905 8.51687C25.8228 8.82983 25.351 8.99324 24.8685 8.97472C24.386 8.9562 23.9281 8.7571 23.5855 8.41687C23.2454 8.0743 23.0465 7.61651 23.0279 7.13417C23.0094 6.65184 23.1727 6.18014 23.4855 5.8125C23.688 5.57434 23.7939 5.26897 23.7823 4.9566C23.7707 4.64423 23.6425 4.34753 23.423 4.125L20.6624 1.36375C20.4291 1.1309 20.1129 1.00012 19.7833 1.00012C19.4537 1.00012 19.1375 1.1309 18.9043 1.36375L14.5074 5.76C14.2359 6.03243 14.0312 6.364 13.9093 6.72875C13.8855 6.79888 13.8459 6.86259 13.7936 6.91494C13.7412 6.96729 13.6775 7.00688 13.6074 7.03062C13.2425 7.15257 12.9109 7.35752 12.6386 7.62937L1.36363 18.9044C1.13078 19.1377 1 19.4538 1 19.7834C1 20.1131 1.13078 20.4292 1.36363 20.6625L4.12488 23.4206C4.3474 23.6402 4.6441 23.7683 4.95648 23.7799C5.26885 23.7915 5.57422 23.6856 5.81238 23.4831C6.17918 23.1676 6.65166 23.0024 7.13514 23.0206C7.61861 23.0387 8.07737 23.2389 8.41948 23.581C8.76159 23.9231 8.96178 24.3819 8.97994 24.8654C8.99809 25.3488 8.83287 25.8213 8.51738 26.1881C8.31491 26.4263 8.20902 26.7316 8.22059 27.044C8.23216 27.3564 8.36035 27.6531 8.57988 27.8756L11.338 30.6337C11.5713 30.8666 11.8874 30.9974 12.2171 30.9974C12.5467 30.9974 12.8628 30.8666 13.0961 30.6337L24.3711 19.3587C24.6428 19.0866 24.8478 18.7553 24.9699 18.3906C24.9935 18.3203 25.0331 18.2563 25.0856 18.2039C25.1381 18.1514 25.202 18.1118 25.2724 18.0881C25.6369 17.9662 25.9683 17.7614 26.2405 17.49L30.6368 13.0931C30.8688 12.8598 30.9989 12.5442 30.9988 12.2152C30.9987 11.8862 30.8683 11.5706 30.6361 11.3375ZM16.363 9.48437C16.2701 9.57726 16.1599 9.65094 16.0385 9.7012C15.9172 9.75147 15.7872 9.77735 15.6558 9.77735C15.5245 9.77735 15.3944 9.75147 15.2731 9.7012C15.1517 9.65094 15.0415 9.57726 14.9486 9.48437L14.2293 8.765C14.0463 8.57652 13.9448 8.32361 13.9468 8.06093C13.9488 7.79825 14.054 7.5469 14.2398 7.3612C14.4256 7.17549 14.677 7.07035 14.9397 7.06848C15.2024 7.06662 15.4552 7.16819 15.6436 7.35125L16.363 8.07C16.4559 8.16286 16.5296 8.27311 16.5798 8.39445C16.6301 8.51579 16.656 8.64584 16.656 8.77719C16.656 8.90853 16.6301 9.03858 16.5798 9.15992C16.5296 9.28126 16.4559 9.39151 16.363 9.48437ZM19.113 12.2344C18.9255 12.4218 18.6712 12.527 18.4061 12.527C18.141 12.527 17.8868 12.4218 17.6993 12.2344L17.0118 11.5469C16.9189 11.454 16.8452 11.3438 16.795 11.2224C16.7447 11.1011 16.7188 10.971 16.7188 10.8397C16.7188 10.7083 16.7447 10.5783 16.795 10.457C16.8452 10.3356 16.9189 10.2254 17.0118 10.1325C17.1993 9.94494 17.4537 9.83957 17.7189 9.83957C17.8503 9.83957 17.9803 9.86544 18.1017 9.9157C18.223 9.96596 18.3333 10.0396 18.4261 10.1325L19.1136 10.82C19.2068 10.9129 19.2808 11.0232 19.3313 11.1447C19.3818 11.2662 19.4078 11.3964 19.4079 11.528C19.4079 11.6596 19.382 11.7898 19.3316 11.9114C19.2812 12.0329 19.2074 12.1433 19.1143 12.2362L19.113 12.2344ZM21.863 14.9844C21.7701 15.0773 21.6599 15.1509 21.5385 15.2012C21.4172 15.2515 21.2872 15.2773 21.1558 15.2773C21.0245 15.2773 20.8944 15.2515 20.7731 15.2012C20.6517 15.1509 20.5415 15.0773 20.4486 14.9844L19.7611 14.2969C19.5782 14.1084 19.4767 13.8555 19.4787 13.5928C19.4807 13.3301 19.5859 13.0788 19.7717 12.8931C19.9575 12.7074 20.2089 12.6022 20.4716 12.6004C20.7342 12.5985 20.9871 12.7001 21.1755 12.8831L21.863 13.5706C21.9565 13.6633 22.0307 13.7736 22.0815 13.895C22.1322 14.0165 22.1585 14.1468 22.1588 14.2784C22.1591 14.4101 22.1334 14.5405 22.0832 14.6621C22.0329 14.7838 21.9592 14.8944 21.8661 14.9875L21.863 14.9844ZM24.6399 17.7681C24.547 17.861 24.4368 17.9347 24.3154 17.985C24.1941 18.0352 24.064 18.0611 23.9327 18.0611C23.8013 18.0611 23.6713 18.0352 23.55 17.985C23.4286 17.9347 23.3184 17.861 23.2255 17.7681L22.5105 17.0494C22.4157 16.9568 22.3402 16.8463 22.2884 16.7243C22.2367 16.6022 22.2097 16.4712 22.2091 16.3386C22.2085 16.2061 22.2342 16.0747 22.2848 15.9522C22.3353 15.8297 22.4098 15.7185 22.5037 15.625C22.5976 15.5315 22.7092 15.4577 22.832 15.4077C22.9547 15.3577 23.0862 15.3326 23.2187 15.3339C23.3512 15.3352 23.4822 15.3628 23.604 15.4151C23.7257 15.4674 23.8359 15.5435 23.928 15.6387L24.6436 16.3569C24.7365 16.4498 24.8101 16.5601 24.8603 16.6814C24.9105 16.8028 24.9363 16.9328 24.9363 17.0642C24.9362 17.1955 24.9103 17.3256 24.86 17.4469C24.8097 17.5682 24.7359 17.6784 24.643 17.7712L24.6399 17.7681Z" fill="white"/>
</svg>
