<svg width="28" height="28" viewBox="0 0 28 28" fill="none" xmlns="http://www.w3.org/2000/svg">
<path d="M14 3.0625C7.96906 3.0625 3.0625 7.96906 3.0625 14C3.0625 20.0309 7.96906 24.9375 14 24.9375C20.0309 24.9375 24.9375 20.0309 24.9375 14C24.9375 7.96906 20.0309 3.0625 14 3.0625ZM14 7.54688C14.2812 7.54688 14.5561 7.63027 14.79 7.7865C15.0238 7.94274 15.206 8.16481 15.3136 8.42462C15.4213 8.68444 15.4494 8.97033 15.3946 9.24614C15.3397 9.52196 15.2043 9.77531 15.0054 9.97417C14.8066 10.173 14.5532 10.3084 14.2774 10.3633C14.0016 10.4182 13.7157 10.39 13.4559 10.2824C13.1961 10.1748 12.974 9.99253 12.8178 9.7587C12.6615 9.52488 12.5781 9.24997 12.5781 8.96875C12.5781 8.59165 12.7279 8.22999 12.9946 7.96333C13.2612 7.69668 13.6229 7.54688 14 7.54688ZM16.625 19.9062H11.8125C11.5804 19.9062 11.3579 19.8141 11.1938 19.65C11.0297 19.4859 10.9375 19.2633 10.9375 19.0312C10.9375 18.7992 11.0297 18.5766 11.1938 18.4125C11.3579 18.2484 11.5804 18.1562 11.8125 18.1562H13.3438V13.3438H12.4688C12.2367 13.3438 12.0141 13.2516 11.85 13.0875C11.6859 12.9234 11.5938 12.7008 11.5938 12.4688C11.5938 12.2367 11.6859 12.0141 11.85 11.85C12.0141 11.6859 12.2367 11.5938 12.4688 11.5938H14.2188C14.4508 11.5938 14.6734 11.6859 14.8375 11.85C15.0016 12.0141 15.0938 12.2367 15.0938 12.4688V18.1562H16.625C16.8571 18.1562 17.0796 18.2484 17.2437 18.4125C17.4078 18.5766 17.5 18.7992 17.5 19.0312C17.5 19.2633 17.4078 19.4859 17.2437 19.65C17.0796 19.8141 16.8571 19.9062 16.625 19.9062Z" fill="white"/>
</svg>
