<svg width="36" height="36" viewBox="0 0 36 36" fill="none" xmlns="http://www.w3.org/2000/svg">
<circle cx="18" cy="18" r="18" fill="#0098EA"/>
<path fill-rule="evenodd" clip-rule="evenodd" d="M24.8368 11L11.1405 11C10.6171 11 10.1809 11.0786 9.65751 11.3144C9.04685 11.5502 8.6979 11.9432 8.52342 12.2576C8.52342 12.2576 8.52342 12.3362 8.43619 12.3362C8.17448 12.7293 8 13.2009 8 13.7511C8 14.2227 8.08724 14.6943 8.43619 15.1659L17.0727 28.5284C17.2471 28.8428 17.5961 29 18.0323 29C18.3812 29 18.7302 28.8428 18.9919 28.5284L27.4539 15.1659C27.6284 14.8515 27.9773 14.4585 27.9773 13.8297C28.0645 13.2795 27.8901 12.8079 27.6284 12.3362C27.3666 11.8646 26.9305 11.4716 26.3198 11.3144C25.7964 11 25.1857 11 24.8368 11ZM19.0791 12.8865L24.8368 12.8865C25.1857 12.8865 25.3602 12.8865 25.4474 12.9651C25.6219 13.0437 25.7091 13.1223 25.7964 13.2795C25.8836 13.3581 25.8836 13.5153 25.8836 13.6725C25.8836 13.7511 25.7964 13.8297 25.6219 14.1441L19.0791 24.3624L19.0791 12.8865ZM16.9854 12.8865L16.9854 24.441L10.3554 14.1441C10.2682 13.9869 10.2682 13.8297 10.2682 13.6725C10.2682 13.5153 10.2682 13.3581 10.3554 13.2795C10.4426 13.2009 10.4426 13.1223 10.5299 13.1223L10.6171 13.0437C10.7916 12.9651 10.9661 12.9651 11.2278 12.9651L16.9854 12.9651L16.9854 12.8865Z" fill="white"/>
</svg>
